<mxfile host="Electron" modified="2023-06-03T08:45:53.885Z" agent="Mozilla/5.0 (X11; Linux x86_64) AppleWebKit/537.36 (KHTML, like Gecko) draw.io/21.2.8 Chrome/112.0.5615.165 Electron/24.2.0 Safari/537.36" etag="u8w5lOP9giP8xWyI5chh" version="21.2.8" type="device">
  <diagram name="Page-1" id="9hxLYqNP3LHKtALYkd7O">
    <mxGraphModel dx="1360" dy="2012" grid="1" gridSize="10" guides="1" tooltips="1" connect="1" arrows="1" fold="1" page="1" pageScale="1" pageWidth="827" pageHeight="1169" math="0" shadow="0">
      <root>
        <mxCell id="0" />
        <mxCell id="1" parent="0" />
        <mxCell id="EqSnk9lM7KNuakhN3Bo1-7" value="" style="edgeStyle=orthogonalEdgeStyle;rounded=0;orthogonalLoop=1;jettySize=auto;html=1;" parent="1" source="yutgnLzAhWY8UuOz-R10-1" target="EqSnk9lM7KNuakhN3Bo1-4" edge="1">
          <mxGeometry relative="1" as="geometry" />
        </mxCell>
        <mxCell id="yutgnLzAhWY8UuOz-R10-1" value="&lt;h1&gt;Start&lt;/h1&gt;" style="ellipse;whiteSpace=wrap;html=1;fillColor=#d5e8d4;strokeColor=#82b366;" parent="1" vertex="1">
          <mxGeometry x="290" y="-390" width="210" height="70" as="geometry" />
        </mxCell>
        <mxCell id="EqSnk9lM7KNuakhN3Bo1-24" value="" style="edgeStyle=orthogonalEdgeStyle;rounded=0;orthogonalLoop=1;jettySize=auto;html=1;" parent="1" source="yutgnLzAhWY8UuOz-R10-17" target="yutgnLzAhWY8UuOz-R10-22" edge="1">
          <mxGeometry relative="1" as="geometry">
            <Array as="points">
              <mxPoint x="180" y="420" />
              <mxPoint x="414" y="420" />
            </Array>
          </mxGeometry>
        </mxCell>
        <mxCell id="yutgnLzAhWY8UuOz-R10-17" value="&lt;h2&gt;Testing Dataset&lt;/h2&gt;" style="rounded=0;whiteSpace=wrap;html=1;fillColor=#e1d5e7;strokeColor=#9673a6;" parent="1" vertex="1">
          <mxGeometry x="80" y="320" width="200" height="60" as="geometry" />
        </mxCell>
        <mxCell id="EqSnk9lM7KNuakhN3Bo1-25" value="" style="edgeStyle=orthogonalEdgeStyle;rounded=0;orthogonalLoop=1;jettySize=auto;html=1;" parent="1" source="yutgnLzAhWY8UuOz-R10-18" target="yutgnLzAhWY8UuOz-R10-22" edge="1">
          <mxGeometry relative="1" as="geometry" />
        </mxCell>
        <mxCell id="yutgnLzAhWY8UuOz-R10-18" value="&lt;h2&gt;Training Dataset&lt;/h2&gt;" style="rounded=0;whiteSpace=wrap;html=1;fillColor=#e1d5e7;strokeColor=#9673a6;" parent="1" vertex="1">
          <mxGeometry x="560" y="320" width="200" height="60" as="geometry" />
        </mxCell>
        <mxCell id="yutgnLzAhWY8UuOz-R10-33" style="edgeStyle=orthogonalEdgeStyle;rounded=0;orthogonalLoop=1;jettySize=auto;html=1;entryX=0.5;entryY=0;entryDx=0;entryDy=0;" parent="1" source="yutgnLzAhWY8UuOz-R10-22" target="yutgnLzAhWY8UuOz-R10-32" edge="1">
          <mxGeometry relative="1" as="geometry" />
        </mxCell>
        <mxCell id="yutgnLzAhWY8UuOz-R10-22" value="" style="rounded=0;whiteSpace=wrap;html=1;fillColor=#f5f5f5;fontColor=#333333;strokeColor=#666666;" parent="1" vertex="1">
          <mxGeometry x="32" y="460" width="764" height="340" as="geometry" />
        </mxCell>
        <mxCell id="yutgnLzAhWY8UuOz-R10-36" style="edgeStyle=orthogonalEdgeStyle;rounded=0;orthogonalLoop=1;jettySize=auto;html=1;exitX=0.5;exitY=1;exitDx=0;exitDy=0;entryX=0.5;entryY=0;entryDx=0;entryDy=0;" parent="1" source="QLZWeZBHtr0a9HTYfuGA-2" target="yutgnLzAhWY8UuOz-R10-35" edge="1">
          <mxGeometry relative="1" as="geometry" />
        </mxCell>
        <mxCell id="yutgnLzAhWY8UuOz-R10-32" value="&lt;h2&gt;Analyzing Results&lt;/h2&gt;" style="rounded=1;whiteSpace=wrap;html=1;fillColor=#d0cee2;strokeColor=#56517e;" parent="1" vertex="1">
          <mxGeometry x="194" y="850" width="440" height="60" as="geometry" />
        </mxCell>
        <mxCell id="31JHaFIlopjZBxf8TIQA-5" style="edgeStyle=orthogonalEdgeStyle;rounded=0;orthogonalLoop=1;jettySize=auto;html=1;exitX=0.5;exitY=1;exitDx=0;exitDy=0;" parent="1" source="yutgnLzAhWY8UuOz-R10-35" target="yutgnLzAhWY8UuOz-R10-37" edge="1">
          <mxGeometry relative="1" as="geometry" />
        </mxCell>
        <mxCell id="yutgnLzAhWY8UuOz-R10-35" value="&lt;h2&gt;Deployment&lt;/h2&gt;" style="rounded=0;whiteSpace=wrap;html=1;fillColor=#b0e3e6;strokeColor=#0e8088;" parent="1" vertex="1">
          <mxGeometry x="274" y="1060" width="280" height="60" as="geometry" />
        </mxCell>
        <mxCell id="yutgnLzAhWY8UuOz-R10-37" value="&lt;h1&gt;Stop&lt;/h1&gt;" style="ellipse;whiteSpace=wrap;html=1;fillColor=#f8cecc;strokeColor=#b85450;" parent="1" vertex="1">
          <mxGeometry x="279" y="1169" width="270" height="80" as="geometry" />
        </mxCell>
        <mxCell id="EqSnk9lM7KNuakhN3Bo1-8" value="" style="edgeStyle=orthogonalEdgeStyle;rounded=0;orthogonalLoop=1;jettySize=auto;html=1;" parent="1" source="EqSnk9lM7KNuakhN3Bo1-4" target="yutgnLzAhWY8UuOz-R10-13" edge="1">
          <mxGeometry relative="1" as="geometry" />
        </mxCell>
        <mxCell id="EqSnk9lM7KNuakhN3Bo1-4" value="&lt;h2&gt;Data Collection&lt;/h2&gt;" style="rounded=1;whiteSpace=wrap;html=1;fillColor=#dae8fc;strokeColor=#6c8ebf;" parent="1" vertex="1">
          <mxGeometry x="290" y="-280" width="210" height="60" as="geometry" />
        </mxCell>
        <mxCell id="EqSnk9lM7KNuakhN3Bo1-6" value="" style="edgeStyle=orthogonalEdgeStyle;rounded=0;orthogonalLoop=1;jettySize=auto;html=1;exitX=0.5;exitY=1;exitDx=0;exitDy=0;exitPerimeter=0;" parent="1" target="yutgnLzAhWY8UuOz-R10-13" edge="1">
          <mxGeometry relative="1" as="geometry">
            <mxPoint x="395.3529411764707" y="70" as="targetPoint" />
            <mxPoint x="395" y="-150" as="sourcePoint" />
          </mxGeometry>
        </mxCell>
        <mxCell id="EqSnk9lM7KNuakhN3Bo1-20" style="edgeStyle=orthogonalEdgeStyle;rounded=0;orthogonalLoop=1;jettySize=auto;html=1;exitX=0.5;exitY=1;exitDx=0;exitDy=0;entryX=0.5;entryY=0;entryDx=0;entryDy=0;" parent="1" source="yutgnLzAhWY8UuOz-R10-13" target="yutgnLzAhWY8UuOz-R10-17" edge="1">
          <mxGeometry relative="1" as="geometry" />
        </mxCell>
        <mxCell id="EqSnk9lM7KNuakhN3Bo1-21" style="edgeStyle=orthogonalEdgeStyle;rounded=0;orthogonalLoop=1;jettySize=auto;html=1;exitX=0.5;exitY=1;exitDx=0;exitDy=0;entryX=0.5;entryY=0;entryDx=0;entryDy=0;" parent="1" source="yutgnLzAhWY8UuOz-R10-13" target="yutgnLzAhWY8UuOz-R10-18" edge="1">
          <mxGeometry relative="1" as="geometry" />
        </mxCell>
        <mxCell id="yutgnLzAhWY8UuOz-R10-13" value="&lt;h2&gt;Data Pre-Processing + EDA&lt;/h2&gt;&lt;div style=&quot;font-size: 15px;&quot;&gt;&lt;h4&gt;&lt;ul style=&quot;&quot;&gt;&lt;li style=&quot;text-align: left;&quot;&gt;&lt;b style=&quot;&quot;&gt;&lt;font style=&quot;font-size: 15px;&quot;&gt;Data Understanding.&amp;nbsp;&lt;/font&gt;&lt;/b&gt;&lt;/li&gt;&lt;/ul&gt;&lt;ul style=&quot;&quot;&gt;&lt;li style=&quot;text-align: left;&quot;&gt;&lt;b&gt;&lt;font style=&quot;font-size: 15px;&quot;&gt;Data Info.&lt;/font&gt;&lt;/b&gt;&lt;/li&gt;&lt;/ul&gt;&lt;ul style=&quot;&quot;&gt;&lt;li style=&quot;text-align: left;&quot;&gt;&lt;b&gt;&lt;font style=&quot;font-size: 15px;&quot;&gt;Finding Null values, Duplicate Values.&lt;/font&gt;&lt;/b&gt;&lt;/li&gt;&lt;/ul&gt;&lt;ul style=&quot;&quot;&gt;&lt;li style=&quot;text-align: left;&quot;&gt;&lt;font style=&quot;font-size: 15px;&quot;&gt;Dropping Null valued rows.&lt;/font&gt;&lt;/li&gt;&lt;/ul&gt;&lt;ul style=&quot;&quot;&gt;&lt;li style=&quot;text-align: left;&quot;&gt;&lt;b&gt;&lt;font style=&quot;font-size: 15px;&quot;&gt;Dropping unrelevant columns.&lt;/font&gt;&lt;/b&gt;&lt;/li&gt;&lt;/ul&gt;&lt;ul style=&quot;&quot;&gt;&lt;li style=&quot;text-align: left;&quot;&gt;&lt;b&gt;&lt;font style=&quot;font-size: 15px;&quot;&gt;Grouping / Merging of Datas for related visualisation.&lt;/font&gt;&lt;/b&gt;&lt;/li&gt;&lt;/ul&gt;&lt;ul style=&quot;&quot;&gt;&lt;li style=&quot;text-align: left;&quot;&gt;&lt;b&gt;&lt;font style=&quot;font-size: 15px;&quot;&gt;Finding required/Important columns using correlation.&lt;/font&gt;&lt;/b&gt;&lt;/li&gt;&lt;/ul&gt;&lt;ul style=&quot;&quot;&gt;&lt;li style=&quot;text-align: left;&quot;&gt;&lt;b style=&quot;&quot;&gt;&lt;font style=&quot;font-size: 15px;&quot;&gt;Data visualisation and analysis.&lt;/font&gt;&lt;/b&gt;&lt;/li&gt;&lt;/ul&gt;&lt;/h4&gt;&lt;/div&gt;" style="rounded=0;whiteSpace=wrap;html=1;fillColor=#ffe6cc;strokeColor=#d79b00;" parent="1" vertex="1">
          <mxGeometry x="226.25" y="-170" width="337.5" height="360" as="geometry" />
        </mxCell>
        <mxCell id="EqSnk9lM7KNuakhN3Bo1-18" style="edgeStyle=orthogonalEdgeStyle;rounded=0;orthogonalLoop=1;jettySize=auto;html=1;exitX=0.5;exitY=1;exitDx=0;exitDy=0;" parent="1" source="EqSnk9lM7KNuakhN3Bo1-13" target="EqSnk9lM7KNuakhN3Bo1-14" edge="1">
          <mxGeometry relative="1" as="geometry" />
        </mxCell>
        <mxCell id="EqSnk9lM7KNuakhN3Bo1-19" style="edgeStyle=orthogonalEdgeStyle;rounded=0;orthogonalLoop=1;jettySize=auto;html=1;exitX=0.5;exitY=1;exitDx=0;exitDy=0;" parent="1" source="EqSnk9lM7KNuakhN3Bo1-13" target="EqSnk9lM7KNuakhN3Bo1-16" edge="1">
          <mxGeometry relative="1" as="geometry" />
        </mxCell>
        <mxCell id="EqSnk9lM7KNuakhN3Bo1-23" style="edgeStyle=orthogonalEdgeStyle;rounded=0;orthogonalLoop=1;jettySize=auto;html=1;exitX=0.5;exitY=1;exitDx=0;exitDy=0;entryX=0.5;entryY=0;entryDx=0;entryDy=0;" parent="1" source="EqSnk9lM7KNuakhN3Bo1-13" target="EqSnk9lM7KNuakhN3Bo1-15" edge="1">
          <mxGeometry relative="1" as="geometry" />
        </mxCell>
        <mxCell id="EqSnk9lM7KNuakhN3Bo1-13" value="&lt;h2&gt;COLLABORATIVE FILTERING&lt;/h2&gt;" style="rounded=1;whiteSpace=wrap;html=1;fillColor=#f8cecc;strokeColor=#b85450;gradientColor=#ea6b66;" parent="1" vertex="1">
          <mxGeometry x="299" y="540" width="230" height="60" as="geometry" />
        </mxCell>
        <mxCell id="EqSnk9lM7KNuakhN3Bo1-14" value="&lt;h3&gt;Item Based&lt;/h3&gt;" style="rounded=0;whiteSpace=wrap;html=1;fillColor=#dae8fc;gradientColor=#7ea6e0;strokeColor=#6c8ebf;" parent="1" vertex="1">
          <mxGeometry x="60" y="700" width="120" height="60" as="geometry" />
        </mxCell>
        <mxCell id="EqSnk9lM7KNuakhN3Bo1-15" value="&lt;h3&gt;User Based&lt;/h3&gt;" style="rounded=0;whiteSpace=wrap;html=1;fillColor=#dae8fc;gradientColor=#7ea6e0;strokeColor=#6c8ebf;" parent="1" vertex="1">
          <mxGeometry x="354" y="700" width="120" height="60" as="geometry" />
        </mxCell>
        <mxCell id="EqSnk9lM7KNuakhN3Bo1-16" value="&lt;h3&gt;Content Based&lt;/h3&gt;" style="rounded=0;whiteSpace=wrap;html=1;fillColor=#dae8fc;gradientColor=#7ea6e0;strokeColor=#6c8ebf;" parent="1" vertex="1">
          <mxGeometry x="660" y="700" width="120" height="60" as="geometry" />
        </mxCell>
        <mxCell id="QLZWeZBHtr0a9HTYfuGA-3" value="" style="edgeStyle=orthogonalEdgeStyle;rounded=0;orthogonalLoop=1;jettySize=auto;html=1;exitX=0.5;exitY=1;exitDx=0;exitDy=0;entryX=0.5;entryY=0;entryDx=0;entryDy=0;" edge="1" parent="1" source="yutgnLzAhWY8UuOz-R10-32" target="QLZWeZBHtr0a9HTYfuGA-2">
          <mxGeometry relative="1" as="geometry">
            <mxPoint x="414" y="790" as="sourcePoint" />
            <mxPoint x="414" y="980" as="targetPoint" />
          </mxGeometry>
        </mxCell>
        <mxCell id="QLZWeZBHtr0a9HTYfuGA-2" value="&lt;h2&gt;Integrating Model With UI&lt;/h2&gt;" style="rounded=1;whiteSpace=wrap;html=1;fillColor=#d0cee2;strokeColor=#56517e;" vertex="1" parent="1">
          <mxGeometry x="194" y="960" width="440" height="60" as="geometry" />
        </mxCell>
        <mxCell id="QLZWeZBHtr0a9HTYfuGA-4" value="&lt;h2 style=&quot;font-size: 22px;&quot;&gt;MODEL BUILDING&lt;/h2&gt;" style="text;html=1;strokeColor=none;fillColor=none;align=center;verticalAlign=middle;whiteSpace=wrap;rounded=0;fontSize=22;fontFamily=Helvetica;" vertex="1" parent="1">
          <mxGeometry x="299" y="470" width="226" height="60" as="geometry" />
        </mxCell>
      </root>
    </mxGraphModel>
  </diagram>
</mxfile>
